<mxfile host="65bd71144e">
    <diagram id="1NVykKCw24j4p7KyOHQg" name="Page-1">
        <mxGraphModel dx="2620" dy="1845" grid="0" gridSize="10" guides="1" tooltips="1" connect="1" arrows="1" fold="1" page="1" pageScale="1" pageWidth="1169" pageHeight="827" background="#ffffff" math="0" shadow="0">
            <root>
                <mxCell id="0"/>
                <mxCell id="1" parent="0"/>
                <mxCell id="251" value="" style="whiteSpace=wrap;html=1;rounded=0;spacing=3;labelBackgroundColor=none;fillColor=none;" vertex="1" parent="1">
                    <mxGeometry x="22" width="1080" height="800" as="geometry"/>
                </mxCell>
                <mxCell id="10" value="theater_complex" style="swimlane;fontStyle=0;childLayout=stackLayout;horizontal=1;startSize=26;fillColor=none;horizontalStack=0;resizeParent=1;resizeParentMax=0;resizeLast=0;collapsible=1;marginBottom=0;strokeColor=#000000;fontColor=#000000;rounded=1;" parent="1" vertex="1">
                    <mxGeometry x="80" y="40" width="140" height="80" as="geometry"/>
                </mxCell>
                <mxCell id="11" value="complex_id" style="text;strokeColor=none;fillColor=none;align=left;verticalAlign=top;spacingLeft=4;spacingRight=4;overflow=hidden;rotatable=0;points=[[0,0.5],[1,0.5]];portConstraint=eastwest;fontColor=#000000;rounded=1;" parent="10" vertex="1">
                    <mxGeometry y="26" width="140" height="26" as="geometry"/>
                </mxCell>
                <mxCell id="12" value="complex_name" style="text;strokeColor=none;fillColor=none;align=left;verticalAlign=top;spacingLeft=4;spacingRight=4;overflow=hidden;rotatable=0;points=[[0,0.5],[1,0.5]];portConstraint=eastwest;fontColor=#000000;rounded=1;" parent="10" vertex="1">
                    <mxGeometry y="52" width="140" height="28" as="geometry"/>
                </mxCell>
                <mxCell id="27" style="edgeStyle=none;html=1;entryX=0.5;entryY=1;entryDx=0;entryDy=0;labelBackgroundColor=default;strokeColor=#000000;fontFamily=Helvetica;fontSize=11;fontColor=#000000;endArrow=none;endFill=0;rounded=1;" edge="1" parent="1" source="14" target="26">
                    <mxGeometry relative="1" as="geometry"/>
                </mxCell>
                <mxCell id="14" value="theater" style="swimlane;fontStyle=0;childLayout=stackLayout;horizontal=1;startSize=26;fillColor=none;horizontalStack=0;resizeParent=1;resizeParentMax=0;resizeLast=0;collapsible=1;marginBottom=0;strokeColor=#000000;fontColor=#000000;rounded=1;" parent="1" vertex="1">
                    <mxGeometry x="80" y="240" width="140" height="174" as="geometry"/>
                </mxCell>
                <mxCell id="15" value="theater_id" style="text;strokeColor=none;fillColor=none;align=left;verticalAlign=top;spacingLeft=4;spacingRight=4;overflow=hidden;rotatable=0;points=[[0,0.5],[1,0.5]];portConstraint=eastwest;fontColor=#000000;rounded=1;" parent="14" vertex="1">
                    <mxGeometry y="26" width="140" height="26" as="geometry"/>
                </mxCell>
                <mxCell id="16" value="theater_name" style="text;strokeColor=none;fillColor=none;align=left;verticalAlign=top;spacingLeft=4;spacingRight=4;overflow=hidden;rotatable=0;points=[[0,0.5],[1,0.5]];portConstraint=eastwest;fontColor=#000000;rounded=1;" parent="14" vertex="1">
                    <mxGeometry y="52" width="140" height="26" as="geometry"/>
                </mxCell>
                <mxCell id="17" value="theater_address&#10;" style="text;strokeColor=none;fillColor=none;align=left;verticalAlign=top;spacingLeft=4;spacingRight=4;overflow=hidden;rotatable=0;points=[[0,0.5],[1,0.5]];portConstraint=eastwest;fontColor=#000000;rounded=1;" parent="14" vertex="1">
                    <mxGeometry y="78" width="140" height="32" as="geometry"/>
                </mxCell>
                <mxCell id="18" value="theater_postal_code&#10;" style="text;strokeColor=none;fillColor=none;align=left;verticalAlign=top;spacingLeft=4;spacingRight=4;overflow=hidden;rotatable=0;points=[[0,0.5],[1,0.5]];portConstraint=eastwest;fontColor=#000000;rounded=1;" parent="14" vertex="1">
                    <mxGeometry y="110" width="140" height="32" as="geometry"/>
                </mxCell>
                <mxCell id="19" value="theater_city" style="text;strokeColor=none;fillColor=none;align=left;verticalAlign=top;spacingLeft=4;spacingRight=4;overflow=hidden;rotatable=0;points=[[0,0.5],[1,0.5]];portConstraint=eastwest;fontColor=#000000;rounded=1;" parent="14" vertex="1">
                    <mxGeometry y="142" width="140" height="32" as="geometry"/>
                </mxCell>
                <mxCell id="28" style="edgeStyle=none;html=1;labelBackgroundColor=default;strokeColor=#000000;fontFamily=Helvetica;fontSize=11;fontColor=#000000;endArrow=none;endFill=0;rounded=1;" edge="1" parent="1" source="26" target="12">
                    <mxGeometry relative="1" as="geometry"/>
                </mxCell>
                <mxCell id="26" value="" style="whiteSpace=wrap;html=1;fillColor=none;strokeColor=#000000;fontColor=#000000;fontStyle=0;startSize=26;labelBackgroundColor=none;labelBorderColor=#000000;fontFamily=Helvetica;fontSize=11;rounded=1;" vertex="1" parent="1">
                    <mxGeometry x="128.75" y="170" width="42.5" height="20" as="geometry"/>
                </mxCell>
                <mxCell id="150" value="&lt;font color=&quot;#000000&quot;&gt;to own&lt;/font&gt;" style="text;html=1;strokeColor=none;fillColor=none;align=center;verticalAlign=middle;whiteSpace=wrap;rounded=1;" vertex="1" parent="1">
                    <mxGeometry x="130" y="172.5" width="40" height="15" as="geometry"/>
                </mxCell>
                <mxCell id="152" value="&lt;font style=&quot;font-size: 11px;&quot;&gt;1,n&lt;/font&gt;" style="text;html=1;align=center;verticalAlign=middle;resizable=0;points=[];autosize=1;strokeColor=none;fillColor=none;fontColor=#000000;rounded=1;" vertex="1" parent="1">
                    <mxGeometry x="120" y="120" width="40" height="30" as="geometry"/>
                </mxCell>
                <mxCell id="153" value="1,1" style="text;html=1;align=center;verticalAlign=middle;resizable=0;points=[];autosize=1;strokeColor=none;fillColor=none;fontSize=11;fontColor=#000000;rounded=1;" vertex="1" parent="1">
                    <mxGeometry x="140" y="210" width="40" height="30" as="geometry"/>
                </mxCell>
                <mxCell id="154" value="1,n" style="text;html=1;align=center;verticalAlign=middle;resizable=0;points=[];autosize=1;strokeColor=none;fillColor=none;fontSize=11;fontColor=#000000;rounded=1;" vertex="1" parent="1">
                    <mxGeometry x="110" y="414" width="40" height="30" as="geometry"/>
                </mxCell>
                <mxCell id="156" style="edgeStyle=none;html=1;fontSize=11;fontColor=#000000;strokeColor=#000000;endArrow=none;endFill=0;rounded=1;" edge="1" parent="1" source="155" target="19">
                    <mxGeometry relative="1" as="geometry"/>
                </mxCell>
                <mxCell id="164" style="edgeStyle=none;html=1;entryX=1.011;entryY=0.965;entryDx=0;entryDy=0;entryPerimeter=0;strokeColor=#000000;fontSize=11;fontColor=#000000;endArrow=none;endFill=0;rounded=1;" edge="1" parent="1" source="155" target="165">
                    <mxGeometry relative="1" as="geometry">
                        <Array as="points">
                            <mxPoint x="150" y="639"/>
                        </Array>
                    </mxGeometry>
                </mxCell>
                <mxCell id="155" value="to own" style="whiteSpace=wrap;html=1;fontSize=11;fontColor=#000000;fillColor=none;rounded=1;strokeColor=#000000;" vertex="1" parent="1">
                    <mxGeometry x="120" y="480" width="60" height="30" as="geometry"/>
                </mxCell>
                <mxCell id="157" value="room" style="swimlane;fontStyle=0;childLayout=stackLayout;horizontal=1;startSize=26;fillColor=none;horizontalStack=0;resizeParent=1;resizeParentMax=0;resizeLast=0;collapsible=1;marginBottom=0;strokeColor=#000000;fontColor=#000000;rounded=1;" vertex="1" parent="1">
                    <mxGeometry x="200" y="580" width="140" height="110" as="geometry"/>
                </mxCell>
                <mxCell id="158" value="room_id" style="text;strokeColor=none;fillColor=none;align=left;verticalAlign=top;spacingLeft=4;spacingRight=4;overflow=hidden;rotatable=0;points=[[0,0.5],[1,0.5]];portConstraint=eastwest;fontColor=#000000;rounded=1;" vertex="1" parent="157">
                    <mxGeometry y="26" width="140" height="26" as="geometry"/>
                </mxCell>
                <mxCell id="159" value="room_number" style="text;strokeColor=none;fillColor=none;align=left;verticalAlign=top;spacingLeft=4;spacingRight=4;overflow=hidden;rotatable=0;points=[[0,0.5],[1,0.5]];portConstraint=eastwest;fontColor=#000000;rounded=1;" vertex="1" parent="157">
                    <mxGeometry y="52" width="140" height="26" as="geometry"/>
                </mxCell>
                <mxCell id="160" value="room_seats" style="text;strokeColor=none;fillColor=none;align=left;verticalAlign=top;spacingLeft=4;spacingRight=4;overflow=hidden;rotatable=0;points=[[0,0.5],[1,0.5]];portConstraint=eastwest;fontColor=#000000;rounded=1;" vertex="1" parent="157">
                    <mxGeometry y="78" width="140" height="32" as="geometry"/>
                </mxCell>
                <mxCell id="165" value="1,1" style="text;html=1;align=center;verticalAlign=middle;resizable=0;points=[];autosize=1;strokeColor=none;fillColor=none;fontSize=11;fontColor=#000000;rounded=1;" vertex="1" parent="1">
                    <mxGeometry x="160" y="610" width="40" height="30" as="geometry"/>
                </mxCell>
                <mxCell id="166" value="client" style="swimlane;fontStyle=0;childLayout=stackLayout;horizontal=1;startSize=26;fillColor=none;horizontalStack=0;resizeParent=1;resizeParentMax=0;resizeLast=0;collapsible=1;marginBottom=0;strokeColor=#000000;fontColor=#000000;rounded=1;" vertex="1" parent="1">
                    <mxGeometry x="300" y="240" width="140" height="174" as="geometry"/>
                </mxCell>
                <mxCell id="167" value="client_id" style="text;strokeColor=none;fillColor=none;align=left;verticalAlign=top;spacingLeft=4;spacingRight=4;overflow=hidden;rotatable=0;points=[[0,0.5],[1,0.5]];portConstraint=eastwest;fontColor=#000000;rounded=1;" vertex="1" parent="166">
                    <mxGeometry y="26" width="140" height="26" as="geometry"/>
                </mxCell>
                <mxCell id="168" value="client_fn" style="text;strokeColor=none;fillColor=none;align=left;verticalAlign=top;spacingLeft=4;spacingRight=4;overflow=hidden;rotatable=0;points=[[0,0.5],[1,0.5]];portConstraint=eastwest;fontColor=#000000;rounded=1;" vertex="1" parent="166">
                    <mxGeometry y="52" width="140" height="26" as="geometry"/>
                </mxCell>
                <mxCell id="169" value="client_ln" style="text;strokeColor=none;fillColor=none;align=left;verticalAlign=top;spacingLeft=4;spacingRight=4;overflow=hidden;rotatable=0;points=[[0,0.5],[1,0.5]];portConstraint=eastwest;fontColor=#000000;rounded=1;" vertex="1" parent="166">
                    <mxGeometry y="78" width="140" height="32" as="geometry"/>
                </mxCell>
                <mxCell id="170" value="client_email" style="text;strokeColor=none;fillColor=none;align=left;verticalAlign=top;spacingLeft=4;spacingRight=4;overflow=hidden;rotatable=0;points=[[0,0.5],[1,0.5]];portConstraint=eastwest;fontColor=#000000;rounded=1;" vertex="1" parent="166">
                    <mxGeometry y="110" width="140" height="32" as="geometry"/>
                </mxCell>
                <mxCell id="171" value="client_password" style="text;strokeColor=none;fillColor=none;align=left;verticalAlign=top;spacingLeft=4;spacingRight=4;overflow=hidden;rotatable=0;points=[[0,0.5],[1,0.5]];portConstraint=eastwest;fontColor=#000000;rounded=1;" vertex="1" parent="166">
                    <mxGeometry y="142" width="140" height="32" as="geometry"/>
                </mxCell>
                <mxCell id="174" value="ticket" style="swimlane;fontStyle=0;childLayout=stackLayout;horizontal=1;startSize=26;fillColor=none;horizontalStack=0;resizeParent=1;resizeParentMax=0;resizeLast=0;collapsible=1;marginBottom=0;strokeColor=#000000;fontColor=#000000;rounded=1;" vertex="1" parent="1">
                    <mxGeometry x="620" y="277" width="60" height="100" as="geometry"/>
                </mxCell>
                <mxCell id="175" value="ticket_id" style="text;strokeColor=none;fillColor=none;align=left;verticalAlign=top;spacingLeft=4;spacingRight=4;overflow=hidden;rotatable=0;points=[[0,0.5],[1,0.5]];portConstraint=eastwest;fontColor=#000000;rounded=1;" vertex="1" parent="174">
                    <mxGeometry y="26" width="60" height="74" as="geometry"/>
                </mxCell>
                <mxCell id="184" style="edgeStyle=none;html=1;entryX=0.993;entryY=0.229;entryDx=0;entryDy=0;strokeColor=#000000;fontSize=11;fontColor=#000000;endArrow=none;endFill=0;spacing=2;exitX=0;exitY=0.5;exitDx=0;exitDy=0;entryPerimeter=0;rounded=1;" edge="1" parent="1" source="182" target="169">
                    <mxGeometry relative="1" as="geometry"/>
                </mxCell>
                <mxCell id="185" style="edgeStyle=none;html=1;entryX=-0.002;entryY=0.297;entryDx=0;entryDy=0;entryPerimeter=0;strokeColor=#000000;fontSize=11;fontColor=#000000;endArrow=none;endFill=0;rounded=1;" edge="1" parent="1" source="182" target="175">
                    <mxGeometry relative="1" as="geometry"/>
                </mxCell>
                <mxCell id="182" value="to buy" style="whiteSpace=wrap;html=1;rounded=1;labelBackgroundColor=none;labelBorderColor=none;strokeColor=#000000;fontSize=11;fontColor=#000000;fillColor=none;" vertex="1" parent="1">
                    <mxGeometry x="500" y="310" width="60" height="30" as="geometry"/>
                </mxCell>
                <mxCell id="186" value="1,n" style="text;html=1;align=center;verticalAlign=middle;resizable=0;points=[];autosize=1;strokeColor=none;fillColor=none;fontSize=11;fontColor=#000000;rounded=1;" vertex="1" parent="1">
                    <mxGeometry x="440" y="295" width="40" height="30" as="geometry"/>
                </mxCell>
                <mxCell id="187" value="1,1" style="text;html=1;align=center;verticalAlign=middle;resizable=0;points=[];autosize=1;strokeColor=none;fillColor=none;fontSize=11;fontColor=#000000;rounded=1;" vertex="1" parent="1">
                    <mxGeometry x="580" y="295" width="40" height="30" as="geometry"/>
                </mxCell>
                <mxCell id="193" value="event" style="swimlane;fontStyle=0;childLayout=stackLayout;horizontal=1;startSize=26;fillColor=none;horizontalStack=0;resizeParent=1;resizeParentMax=0;resizeLast=0;collapsible=1;marginBottom=0;rounded=1;labelBackgroundColor=none;labelBorderColor=none;strokeColor=#000000;fontSize=11;fontColor=#000000;" vertex="1" parent="1">
                    <mxGeometry x="580" y="580" width="140" height="104" as="geometry"/>
                </mxCell>
                <mxCell id="194" value="event_id" style="text;strokeColor=none;fillColor=none;align=left;verticalAlign=top;spacingLeft=4;spacingRight=4;overflow=hidden;rotatable=0;points=[[0,0.5],[1,0.5]];portConstraint=eastwest;rounded=1;labelBackgroundColor=none;labelBorderColor=none;fontSize=11;fontColor=#000000;" vertex="1" parent="193">
                    <mxGeometry y="26" width="140" height="26" as="geometry"/>
                </mxCell>
                <mxCell id="195" value="event_date" style="text;strokeColor=none;fillColor=none;align=left;verticalAlign=top;spacingLeft=4;spacingRight=4;overflow=hidden;rotatable=0;points=[[0,0.5],[1,0.5]];portConstraint=eastwest;rounded=1;labelBackgroundColor=none;labelBorderColor=none;fontSize=11;fontColor=#000000;" vertex="1" parent="193">
                    <mxGeometry y="52" width="140" height="26" as="geometry"/>
                </mxCell>
                <mxCell id="196" value="+ field: type" style="text;strokeColor=none;fillColor=none;align=left;verticalAlign=top;spacingLeft=4;spacingRight=4;overflow=hidden;rotatable=0;points=[[0,0.5],[1,0.5]];portConstraint=eastwest;rounded=1;labelBackgroundColor=none;labelBorderColor=none;fontSize=11;fontColor=#000000;" vertex="1" parent="193">
                    <mxGeometry y="78" width="140" height="26" as="geometry"/>
                </mxCell>
                <mxCell id="197" value="1,1" style="text;html=1;align=center;verticalAlign=middle;resizable=0;points=[];autosize=1;strokeColor=none;fillColor=none;fontSize=11;fontColor=#000000;rounded=1;" vertex="1" parent="1">
                    <mxGeometry x="610" y="377" width="40" height="30" as="geometry"/>
                </mxCell>
                <mxCell id="199" value="0,n" style="text;html=1;align=center;verticalAlign=middle;resizable=0;points=[];autosize=1;strokeColor=none;fillColor=none;fontSize=11;fontColor=#000000;rounded=1;" vertex="1" parent="1">
                    <mxGeometry x="610" y="545" width="40" height="30" as="geometry"/>
                </mxCell>
                <mxCell id="201" style="edgeStyle=none;html=1;entryX=0.5;entryY=0;entryDx=0;entryDy=0;strokeColor=#000000;fontSize=11;fontColor=#000000;endArrow=none;endFill=0;rounded=1;" edge="1" parent="1" source="200" target="193">
                    <mxGeometry relative="1" as="geometry"/>
                </mxCell>
                <mxCell id="202" style="edgeStyle=none;html=1;entryX=1.006;entryY=-0.015;entryDx=0;entryDy=0;entryPerimeter=0;strokeColor=#000000;fontSize=11;fontColor=#000000;endArrow=none;endFill=0;rounded=1;" edge="1" parent="1" source="200" target="197">
                    <mxGeometry relative="1" as="geometry"/>
                </mxCell>
                <mxCell id="200" value="to refer" style="whiteSpace=wrap;html=1;rounded=1;labelBackgroundColor=none;labelBorderColor=none;strokeColor=#000000;fontSize=11;fontColor=#000000;fillColor=none;" vertex="1" parent="1">
                    <mxGeometry x="610" y="450" width="80" height="30" as="geometry"/>
                </mxCell>
                <mxCell id="205" style="edgeStyle=none;html=1;entryX=0;entryY=0.115;entryDx=0;entryDy=0;entryPerimeter=0;strokeColor=#000000;fontSize=11;fontColor=#000000;endArrow=none;endFill=0;rounded=1;" edge="1" parent="1" source="204" target="195">
                    <mxGeometry relative="1" as="geometry"/>
                </mxCell>
                <mxCell id="206" style="edgeStyle=none;html=1;entryX=1.002;entryY=0.115;entryDx=0;entryDy=0;entryPerimeter=0;strokeColor=#000000;fontSize=11;fontColor=#000000;endArrow=none;endFill=0;rounded=1;" edge="1" parent="1" source="204" target="159">
                    <mxGeometry relative="1" as="geometry"/>
                </mxCell>
                <mxCell id="204" value="to broadcast" style="whiteSpace=wrap;html=1;rounded=1;labelBackgroundColor=none;labelBorderColor=none;strokeColor=#000000;fontSize=11;fontColor=#000000;fillColor=none;" vertex="1" parent="1">
                    <mxGeometry x="415" y="620" width="90" height="30" as="geometry"/>
                </mxCell>
                <mxCell id="207" value="0,n" style="text;html=1;align=center;verticalAlign=middle;resizable=0;points=[];autosize=1;strokeColor=none;fillColor=none;fontSize=11;fontColor=#000000;rounded=1;" vertex="1" parent="1">
                    <mxGeometry x="340" y="610" width="40" height="30" as="geometry"/>
                </mxCell>
                <mxCell id="208" value="1,1" style="text;html=1;align=center;verticalAlign=middle;resizable=0;points=[];autosize=1;strokeColor=none;fillColor=none;fontSize=11;fontColor=#000000;rounded=1;" vertex="1" parent="1">
                    <mxGeometry x="540" y="610" width="40" height="30" as="geometry"/>
                </mxCell>
                <mxCell id="209" value="film" style="swimlane;fontStyle=0;childLayout=stackLayout;horizontal=1;startSize=26;fillColor=none;horizontalStack=0;resizeParent=1;resizeParentMax=0;resizeLast=0;collapsible=1;marginBottom=0;rounded=1;labelBackgroundColor=none;labelBorderColor=none;strokeColor=#000000;fontSize=11;fontColor=#000000;" vertex="1" parent="1">
                    <mxGeometry x="920" y="580" width="140" height="130" as="geometry"/>
                </mxCell>
                <mxCell id="210" value="film_id" style="text;strokeColor=none;fillColor=none;align=left;verticalAlign=top;spacingLeft=4;spacingRight=4;overflow=hidden;rotatable=0;points=[[0,0.5],[1,0.5]];portConstraint=eastwest;rounded=1;labelBackgroundColor=none;labelBorderColor=none;fontSize=11;fontColor=#000000;" vertex="1" parent="209">
                    <mxGeometry y="26" width="140" height="26" as="geometry"/>
                </mxCell>
                <mxCell id="211" value="film_title" style="text;strokeColor=none;fillColor=none;align=left;verticalAlign=top;spacingLeft=4;spacingRight=4;overflow=hidden;rotatable=0;points=[[0,0.5],[1,0.5]];portConstraint=eastwest;rounded=1;labelBackgroundColor=none;labelBorderColor=none;fontSize=11;fontColor=#000000;" vertex="1" parent="209">
                    <mxGeometry y="52" width="140" height="26" as="geometry"/>
                </mxCell>
                <mxCell id="212" value="film_year" style="text;strokeColor=none;fillColor=none;align=left;verticalAlign=top;spacingLeft=4;spacingRight=4;overflow=hidden;rotatable=0;points=[[0,0.5],[1,0.5]];portConstraint=eastwest;rounded=1;labelBackgroundColor=none;labelBorderColor=none;fontSize=11;fontColor=#000000;" vertex="1" parent="209">
                    <mxGeometry y="78" width="140" height="26" as="geometry"/>
                </mxCell>
                <mxCell id="214" value="film_length" style="text;strokeColor=none;fillColor=none;align=left;verticalAlign=top;spacingLeft=4;spacingRight=4;overflow=hidden;rotatable=0;points=[[0,0.5],[1,0.5]];portConstraint=eastwest;rounded=1;labelBackgroundColor=none;labelBorderColor=none;fontSize=11;fontColor=#000000;" vertex="1" parent="209">
                    <mxGeometry y="104" width="140" height="26" as="geometry"/>
                </mxCell>
                <mxCell id="216" style="edgeStyle=none;html=1;entryX=1.006;entryY=0.115;entryDx=0;entryDy=0;entryPerimeter=0;strokeColor=#000000;fontSize=11;fontColor=#000000;endArrow=none;endFill=0;rounded=1;" edge="1" parent="1" source="215" target="195">
                    <mxGeometry relative="1" as="geometry"/>
                </mxCell>
                <mxCell id="217" style="edgeStyle=none;html=1;entryX=0.003;entryY=0.097;entryDx=0;entryDy=0;entryPerimeter=0;strokeColor=#000000;fontSize=11;fontColor=#000000;endArrow=none;endFill=0;rounded=1;" edge="1" parent="1" source="215" target="211">
                    <mxGeometry relative="1" as="geometry"/>
                </mxCell>
                <mxCell id="215" value="to broadcast" style="whiteSpace=wrap;html=1;rounded=1;labelBackgroundColor=none;labelBorderColor=none;strokeColor=#000000;fontSize=11;fontColor=#000000;fillColor=none;" vertex="1" parent="1">
                    <mxGeometry x="780" y="620" width="80" height="30" as="geometry"/>
                </mxCell>
                <mxCell id="218" value="1,1" style="text;html=1;align=center;verticalAlign=middle;resizable=0;points=[];autosize=1;strokeColor=none;fillColor=none;fontSize=11;fontColor=#000000;rounded=1;" vertex="1" parent="1">
                    <mxGeometry x="720" y="610" width="40" height="30" as="geometry"/>
                </mxCell>
                <mxCell id="219" value="0,n" style="text;html=1;align=center;verticalAlign=middle;resizable=0;points=[];autosize=1;strokeColor=none;fillColor=none;fontSize=11;fontColor=#000000;rounded=1;" vertex="1" parent="1">
                    <mxGeometry x="890" y="610" width="40" height="30" as="geometry"/>
                </mxCell>
                <mxCell id="221" value="price" style="swimlane;fontStyle=0;childLayout=stackLayout;horizontal=1;startSize=26;fillColor=none;horizontalStack=0;resizeParent=1;resizeParentMax=0;resizeLast=0;collapsible=1;marginBottom=0;rounded=1;labelBackgroundColor=none;labelBorderColor=none;strokeColor=#000000;fontSize=11;fontColor=#000000;" vertex="1" parent="1">
                    <mxGeometry x="920" y="277" width="140" height="104" as="geometry"/>
                </mxCell>
                <mxCell id="222" value="price_id" style="text;strokeColor=none;fillColor=none;align=left;verticalAlign=top;spacingLeft=4;spacingRight=4;overflow=hidden;rotatable=0;points=[[0,0.5],[1,0.5]];portConstraint=eastwest;rounded=1;labelBackgroundColor=none;labelBorderColor=none;fontSize=11;fontColor=#000000;" vertex="1" parent="221">
                    <mxGeometry y="26" width="140" height="26" as="geometry"/>
                </mxCell>
                <mxCell id="223" value="price_value" style="text;strokeColor=none;fillColor=none;align=left;verticalAlign=top;spacingLeft=4;spacingRight=4;overflow=hidden;rotatable=0;points=[[0,0.5],[1,0.5]];portConstraint=eastwest;rounded=1;labelBackgroundColor=none;labelBorderColor=none;fontSize=11;fontColor=#000000;" vertex="1" parent="221">
                    <mxGeometry y="52" width="140" height="26" as="geometry"/>
                </mxCell>
                <mxCell id="224" value="price_name" style="text;strokeColor=none;fillColor=none;align=left;verticalAlign=top;spacingLeft=4;spacingRight=4;overflow=hidden;rotatable=0;points=[[0,0.5],[1,0.5]];portConstraint=eastwest;rounded=1;labelBackgroundColor=none;labelBorderColor=none;fontSize=11;fontColor=#000000;" vertex="1" parent="221">
                    <mxGeometry y="78" width="140" height="26" as="geometry"/>
                </mxCell>
                <mxCell id="227" style="edgeStyle=none;html=1;entryX=1.006;entryY=0.297;entryDx=0;entryDy=0;entryPerimeter=0;strokeColor=#000000;fontSize=11;fontColor=#000000;endArrow=none;endFill=0;rounded=1;" edge="1" parent="1" source="226" target="175">
                    <mxGeometry relative="1" as="geometry"/>
                </mxCell>
                <mxCell id="228" style="edgeStyle=none;html=1;entryX=-0.007;entryY=0.855;entryDx=0;entryDy=0;entryPerimeter=0;strokeColor=#000000;fontSize=11;fontColor=#000000;endArrow=none;endFill=0;rounded=1;" edge="1" parent="1" source="226" target="222">
                    <mxGeometry relative="1" as="geometry"/>
                </mxCell>
                <mxCell id="226" value="to cost" style="whiteSpace=wrap;html=1;rounded=1;labelBackgroundColor=none;labelBorderColor=none;strokeColor=#000000;fontSize=11;fontColor=#000000;fillColor=none;" vertex="1" parent="1">
                    <mxGeometry x="770" y="310" width="60" height="30" as="geometry"/>
                </mxCell>
                <mxCell id="229" value="0,n" style="text;html=1;align=center;verticalAlign=middle;resizable=0;points=[];autosize=1;strokeColor=none;fillColor=none;fontSize=11;fontColor=#000000;rounded=1;" vertex="1" parent="1">
                    <mxGeometry x="880" y="295" width="40" height="30" as="geometry"/>
                </mxCell>
                <mxCell id="230" value="1,1" style="text;html=1;align=center;verticalAlign=middle;resizable=0;points=[];autosize=1;strokeColor=none;fillColor=none;fontSize=11;fontColor=#000000;rounded=1;" vertex="1" parent="1">
                    <mxGeometry x="680" y="295" width="40" height="30" as="geometry"/>
                </mxCell>
                <mxCell id="252" value="&lt;font style=&quot;font-size: 20px;&quot; color=&quot;#000000&quot;&gt;Modèle Conceptuel de données&lt;/font&gt;" style="text;html=1;strokeColor=none;fillColor=none;align=center;verticalAlign=middle;whiteSpace=wrap;rounded=0;labelBackgroundColor=none;fontStyle=1" vertex="1" parent="1">
                    <mxGeometry x="421" y="34" width="327" height="26" as="geometry"/>
                </mxCell>
            </root>
        </mxGraphModel>
    </diagram>
</mxfile>